<svg version="1.1" class="bookingSvg" width="25" height="25" xmlns="http://www.w3.org/2000/svg" xmlns:xlink="http://www.w3.org/1999/xlink" x="0px" y="0px"
	 viewBox="0 0 481.2 512" style="enable-background:new 0 0 481.2 512;" xml:space="preserve">
	<path d="M131.8,157.7c15.8,0,28.6-12.8,28.6-28.7V28.7c0-15.8-12.8-28.7-28.6-28.7c-15.8,0-28.6,12.8-28.6,28.7V129
		C103.2,144.8,116,157.7,131.8,157.7z M349.4,157.7c15.8,0,28.6-12.8,28.6-28.7V28.7C378,12.8,365.2,0,349.4,0
		c-15.8,0-28.6,12.8-28.6,28.7V129C320.7,144.8,333.5,157.7,349.4,157.7z M298.1,64.7H183.1v34.4h115L298.1,64.7L298.1,64.7z
		 M423.9,64.7h-11.9v34.4h11.9c12.4,0,22.9,10.5,22.9,22.9v69.3H34.3v-69.3c0-12.4,10.5-22.9,22.9-22.9h22.6V64.7H57.2
		C25.8,64.7,0,90.5,0,122.1v332.6C0,486.2,25.8,512,57.2,512h366.7c31.5,0,57.3-25.8,57.3-57.3V122.1
		C481.2,90.5,455.4,64.7,423.9,64.7z M446.8,454.7c0,12.4-10.5,22.9-22.9,22.9H57.2c-12.4,0-22.9-10.5-22.9-22.9V225h412.5V454.7z
		 M126.1,321.6c15.8,0,28.6-12.8,28.6-28.7c0-15.8-12.8-28.7-28.6-28.7S97.5,277,97.5,292.9C97.5,308.7,110.3,321.6,126.1,321.6z
		 M240.6,321.6c15.8,0,28.6-12.8,28.6-28.7c0-15.8-12.8-28.7-28.6-28.7c-15.8,0-28.6,12.8-28.6,28.7
		C212,308.7,224.8,321.6,240.6,321.6z M126.1,436.2c15.8,0,28.6-12.8,28.6-28.7c0-15.8-12.8-28.7-28.6-28.7s-28.6,12.8-28.6,28.7
		C97.5,423.4,110.3,436.2,126.1,436.2z M240.6,436.2c15.8,0,28.6-12.8,28.6-28.7c0-15.8-12.8-28.7-28.6-28.7
		c-15.8,0-28.6,12.8-28.6,28.7C212,423.4,224.8,436.2,240.6,436.2z M355.1,321.6c15.8,0,28.6-12.8,28.6-28.7
		c0-15.8-12.8-28.7-28.6-28.7c-15.8,0-28.6,12.8-28.6,28.7C326.4,308.7,339.3,321.6,355.1,321.6z"/>
</svg>
