<svg version="1.1" class="bookingSvg" width="25" height="25" xmlns="http://www.w3.org/2000/svg" xmlns:xlink="http://www.w3.org/1999/xlink" x="0px" y="0px"
	 viewBox="0 0 478.8 512" style="enable-background:new 0 0 478.8 512;" xml:space="preserve">
	<path d="M348.1,314.2c40.9-32.2,67.3-82.1,67.3-138.2c0-97.2-78.8-176-176-176s-176,78.8-176,176
		c0,56.1,26.4,106,67.3,138.2C57.3,351.6,5.7,425.5,0,512h32c6.2-81,58.8-148.9,131.3-177.5c23,11.1,48.8,17.5,76,17.5
		c27.3,0,53-6.4,76-17.5C388,363.1,440.6,431,446.8,512h32C473.2,425.5,421.5,351.6,348.1,314.2z M239.4,320
		c-79.5,0-144-64.5-144-144c0-79.5,64.5-144,144-144s144,64.5,144,144C383.4,255.5,319,320,239.4,320z"/>
</svg>
