<svg version="1.1" class="mediaSvg photo" width="40" height="30" xmlns="http://www.w3.org/2000/svg" xmlns:xlink="http://www.w3.org/1999/xlink" x="0px" y="0px"
	 viewBox="0 2172.5 5669.3 4158.9" style="enable-background:new 0 2172.5 5669.3 4158.9;" xml:space="preserve">
<g>
	<path d="M2834.7,3405.9c-645.7,0-1171,525.3-1171,1171c0,645.7,525.3,1171,1171,1171c645.7,0,1171-525.3,1171-1171
		S3480.4,3405.9,2834.7,3405.9z M2834.7,5538.6c-530.3,0-961.7-431.4-961.7-961.7c0-530.3,431.4-961.7,961.7-961.7
		c530.3,0,961.7,431.4,961.7,961.7C3796.3,5107.2,3364.9,5538.6,2834.7,5538.6z"/>
	<path d="M5016.3,3336.7h-620.4c-57.8,0-104.7,46.9-104.7,104.7v389.8c0,57.8,46.9,104.7,104.7,104.7h620.4
		c57.8,0,104.7-46.9,104.7-104.7v-389.8C5121,3383.6,5074.1,3336.7,5016.3,3336.7z M4911.7,3726.4h-411.1V3546h411.1V3726.4z"/>
	<path d="M5385.9,2822.4H3949.5l-289-591.2c-17.6-35.9-54.1-58.7-94-58.7H2102.9c-40,0-76.5,22.8-94,58.7l-289,591.2H283.3
		C127.1,2822.4,0,2946.2,0,3098.5v2956.9c0,152.2,127.1,276.1,283.3,276.1h5102.6c156.2,0,283.4-123.9,283.4-276.1V3098.5
		C5669.3,2946.2,5542.2,2822.4,5385.9,2822.4z M5460,6055.4c0,36.8-33.2,66.7-74,66.7H283.3c-40.8,0-74-30-74-66.7V3098.5
		c0-36.8,33.2-66.7,74-66.7h1501.8c40,0,76.5-22.8,94-58.7l289-591.2h1332.9l289,591.2c17.6,35.9,54.1,58.7,94,58.7h1501.8
		c40.8,0,74,30,74,66.7V6055.4z"/>
</g>
</svg>
