<svg version="1.1" class="snailSvg" with="18" height="18" xmlns="http://www.w3.org/2000/svg" xmlns:xlink="http://www.w3.org/1999/xlink" x="0px" y="0px"
	 viewBox="0 0 26.2 30" style="enable-background:new 0 0 26.2 30;" xml:space="preserve">
<style type="text/css">
	.snail_st0{clip-path:url(#SVGID_2_);fill:#1D71B8;}
	.snail_st1{fill:url(#SVGID_3_);}
	.snail_st2{clip-path:url(#SVGID_5_);}
	.snail_st3{clip-path:url(#SVGID_9_);fill:#1D71B8;}
	.snail_st4{clip-path:url(#SVGID_9_);fill:#FFFFFF;}
</style>
<g>
	<defs>
		<path id="SVGID_1_" d="M-3.1,0.7c0,0.2-0.1,0.5-0.1,0.7v25.9c0,0,0,0.6,0.3,1.4h32.8c0.1-0.3,0.2-0.6,0.2-0.9V1.2
			c0-0.1,0-0.3-0.1-0.5H-3.1z"/>
	</defs>
	<clipPath id="SVGID_2_">
		<use xlink:href="#SVGID_1_"  style="overflow:visible;"/>
	</clipPath>
	<path class="snail_st0" d="M17,1.5c1.5,0.5,2.7,1.2,3.8,2.1c1.1,0.9,1.9,2,2.5,3.4c0.6,1.3,0.9,2.8,0.9,4.5c0,1.7-0.3,3.2-0.9,4.5
		c-0.6,1.3-1.4,2.5-2.5,3.4c-1.1,0.9-2.3,1.6-3.8,2.1c-1.5,0.5-3.1,0.7-4.8,0.7c-1.8,0-3.4-0.2-4.8-0.7c-1.5-0.5-2.7-1.2-3.8-2.1
		c-1.1-0.9-1.9-2-2.5-3.4s-0.9-2.8-0.9-4.5c0-1.7,0.3-3.2,0.9-4.5c0.6-1.3,1.4-2.5,2.5-3.4c1.1-0.9,2.3-1.6,3.8-2.1
		c1.5-0.5,3.1-0.7,4.8-0.7C14,0.7,15.6,1,17,1.5 M1.8,23.8c0.8-0.5,1.6-0.9,2.5-1c0.9-0.2,1.7-0.3,2.6-0.3c0.9,0,1.9,0.2,3,0.5
		c1.1,0.3,2.1,0.7,3.2,1.1c1.1,0.4,2.2,0.8,3.2,1.1c1.1,0.3,2.1,0.5,3,0.5c1.3,0,2.3-0.2,3.2-0.6c0.9-0.4,1.7-1.1,2.5-2.1l0.6,0.5
		c-0.4,0.7-0.8,1.3-1.3,1.9c-0.5,0.6-1,1.2-1.7,1.7c-0.6,0.5-1.3,0.9-2.1,1.2c-0.8,0.3-1.6,0.5-2.5,0.5c-0.8,0-1.6-0.1-2.4-0.4
		c-0.8-0.2-1.5-0.6-2.3-0.9c-0.7-0.4-1.4-0.8-2.1-1.2c-0.7-0.4-1.4-0.8-2.1-1.2c-0.7-0.4-1.4-0.7-2-0.9c-0.7-0.2-1.4-0.4-2.1-0.4
		c-0.5,0-1.1,0.1-1.6,0.2c-0.6,0.1-1.1,0.3-1.4,0.6L1.8,23.8"/>
</g>
<linearGradient id="SVGID_3_" gradientUnits="userSpaceOnUse" x1="5.0829" y1="17.2713" x2="19.0422" y2="5.558">
	<stop  offset="0" style="stop-color:#FFFFFF"/>
	<stop  offset="1" style="stop-color:#FFD500"/>
</linearGradient>
<ellipse class="snail_st1" cx="12.1" cy="11.4" rx="8.6" ry="9.8"/>
<g>
	<defs>
		<path id="SVGID_4_" d="M12.1,1.6L12.1,1.6L12.1,1.6z"/>
	</defs>
	<clipPath id="SVGID_5_">
		<use xlink:href="#SVGID_4_"  style="overflow:visible;"/>
	</clipPath>
	<g class="snail_st2">
		<defs>
			<rect id="SVGID_6_" x="11.6" y="1.4" width="1" height="0.2"/>
		</defs>
		<clipPath id="SVGID_7_">
			<use xlink:href="#SVGID_6_"  style="overflow:visible;"/>
		</clipPath>
		<g style="clip-path:url(#SVGID_7_);">
			
				<image style="overflow:visible;" width="1" height="1" xlink:href="B251999AA7067DE8.jpg"  transform="matrix(0.9528 0 0 -0.2041 11.5846 1.6491)">
			</image>
		</g>
	</g>
</g>
<g>
	<defs>
		<path id="SVGID_8_" d="M-3.1,0.7c0,0.2-0.1,0.5-0.1,0.7v25.9c0,0,0,0.6,0.3,1.4h32.8c0.1-0.3,0.2-0.6,0.2-0.9V1.2
			c0-0.1,0-0.3-0.1-0.5H-3.1z"/>
	</defs>
	<clipPath id="SVGID_9_">
		<use xlink:href="#SVGID_8_"  style="overflow:visible;"/>
	</clipPath>
	<path class="snail_st3" d="M17.2,16.9l-10.5,0c-0.2,0-0.3-0.1-0.3-0.3V11H5.3c-0.1,0-0.3-0.1-0.3-0.2c0-0.1,0-0.3,0.1-0.3l2.8-1.8v-2
		c0-0.2,0.1-0.3,0.3-0.3h1.4c0.2,0,0.3,0.1,0.3,0.3l0,0.7l1.9-1.2c0,0,0.1,0,0.2,0c0.1,0,0.1,0,0.2,0l6.9,4.3
		c0.1,0.1,0.2,0.2,0.1,0.3c0,0.1-0.2,0.2-0.3,0.2h-1.4l0,5.6c0,0.1,0,0.2-0.1,0.2C17.4,16.9,17.3,16.9,17.2,16.9 M12.6,14.9h2.9
		v-4.1L12,8.5l-3.6,2.2v4.1h2l-1.3-1.3c-0.1-0.1-0.1-0.3,0-0.4l1-1c0.1-0.1,0.1-0.1,0.2-0.1c0.1,0,0.2,0,0.2,0.1l0.9,0.9l2.3-2.3
		c0.1-0.1,0.1-0.1,0.2-0.1c0.1,0,0.2,0,0.2,0.1l1,1c0.1,0.1,0.1,0.3,0,0.4l-2.6,2.6L12.6,14.9z"/>
	<path class="snail_st4" d="M12,6.4l6.9,4.3h-1.7l0,6l-10.5,0v-6H5.3l2.9-1.9V6.6h1.4l0,1.3L12,6.4 M8.2,15.2h3l-1.8-1.8l1-1l1.1,1.1
		l2.6-2.6l1,1l-2.6,2.6l-0.7,0.7h4v-4.5L12,8.2l-3.9,2.4V15.2 M12,5.8c-0.1,0-0.2,0-0.3,0.1l-1.4,0.9l0-0.2C10.3,6.3,10,6,9.7,6H8.2
		C7.9,6,7.6,6.3,7.6,6.6v1.8L5,10.2c-0.2,0.1-0.3,0.4-0.3,0.7c0.1,0.3,0.3,0.4,0.6,0.4h0.8v5.4c0,0.3,0.3,0.6,0.6,0.6l10.5,0h0
		c0.2,0,0.3-0.1,0.4-0.2c0.1-0.1,0.2-0.3,0.2-0.4l0-5.3h1.1c0.3,0,0.5-0.2,0.6-0.4c0.1-0.3,0-0.5-0.3-0.7l-6.9-4.3
		C12.3,5.8,12.2,5.8,12,5.8 M8.8,10.9l3.3-2l3.2,2.1v0.3l-0.7-0.7c-0.1-0.1-0.3-0.2-0.4-0.2c-0.2,0-0.3,0.1-0.4,0.2l-2.1,2.1
		L10.8,12c-0.1-0.1-0.3-0.2-0.4-0.2c-0.2,0-0.3,0.1-0.4,0.2l-1,1c-0.1,0.1-0.2,0.3-0.2,0.4c0,0.2,0.1,0.3,0.2,0.4l0.7,0.7h-1V10.9z
		 M13.3,14.6l1.9-1.9v1.9H13.3z"/>
</g>
</svg>
