<svg version="1.1" class="search_lens_svg" width="25" height="25" xmlns="http://www.w3.org/2000/svg" xmlns:xlink="http://www.w3.org/1999/xlink" x="0px" y="0px"
	 viewBox="0 0 25 25" style="enable-background:new 0 0 25 25;" xml:space="preserve">
<style type="text/css">
	.st0{fill:#FFFFFF;}
</style>
<g>
	<path class="st0" d="M24.7,24.7c0.4-0.4,0.4-1.1,0-1.5l-6-6c1.5-1.8,2.4-4.1,2.4-6.7C21.1,4.7,16.4,0,10.5,0S0,4.7,0,10.5
		c0,5.8,4.7,10.5,10.5,10.5c2.5,0,4.9-0.9,6.7-2.4l6,6C23.6,25.1,24.3,25.1,24.7,24.7z M10.5,19c-4.7,0-8.4-3.8-8.4-8.4
		c0-4.7,3.8-8.4,8.4-8.4S19,5.9,19,10.5C19,15.2,15.2,19,10.5,19z"/>
</g>
</svg>
