<svg xmlns="http://www.w3.org/2000/svg" xmlns:xlink="http://www.w3.org/1999/xlink" version="1.1" class="search_close_svg" width="25" height="25" x="0px" y="0px" viewBox="0 0 512 512" xml:space="preserve" enable-background="new 0 0 512 512"><g><g><path d="M256 512C114.8 512 0 397.2 0 256S114.8 0 256 0s256 114.8 256 256C512 397.2 397.2 512 256 512zM256 29.2C131 29.2 29.2 131 29.2 256S131 482.7 256 482.7c125 0 226.7-101.7 226.7-226.7S381 29.2 256 29.2z"/></g><g><path d="M356.9 270.6H155.1c-8.1 0-14.6-6.5-14.6-14.6 0-8.1 6.5-14.6 14.6-14.6h201.9c8.1 0 14.6 6.6 14.6 14.6C371.5 264.1 365 270.6 356.9 270.6z"/></g><g><path d="M256 371.6c-8.1 0-14.6-6.5-14.6-14.6V155.1c0-8.1 6.6-14.6 14.6-14.6 8.1 0 14.6 6.6 14.6 14.6v201.9C270.6 365 264.1 371.6 256 371.6z"/></g></g></svg>