<svg version="1.1" class="mediaSvg video" width="40" height="25" xmlns="http://www.w3.org/2000/svg" xmlns:xlink="http://www.w3.org/1999/xlink" x="0px" y="0px"
	 viewBox="0 2609.9 5669.3 3276.1" style="enable-background:new 0 2609.9 5669.3 3276.1;" xml:space="preserve">
<path d="M5454.6,2904.9c-59.8,0-121.5,23.7-183.6,70.4L4660.9,3435c-46-462.5-437.4-825.1-911.8-825.1H916.3
	C411,2610,0,3021,0,3526.2v1443.5C0,5475,411,5886,916.3,5886h2832.9c474.4,0,865.8-362.4,911.8-825.1l610,459.6
	c62.1,46.8,123.9,70.4,183.6,70.4l0,0c66.7,0,125-30.1,163.9-84.8c33.7-47.3,50.7-109.3,50.7-184.3V3174
	C5669.3,2988.1,5561.4,2904.9,5454.6,2904.9z M5481.7,5322c0,49.3-12.2,70.2-15.9,75.5c-3.8,5.3-5.7,6-11.2,6
	c-6.4,0-30.5-2.3-70.8-32.7L4628,4801.3c-28.4-21.5-66.5-24.9-98.3-9c-31.8,15.8-52,48.4-52,83.9v93.5
	c0,401.8-326.9,728.7-728.7,728.7H916.3c-401.8-0.1-728.7-327-728.7-728.8V3526.2c0-401.7,326.9-728.6,728.7-728.6h2832.9
	c401.8,0,728.7,326.9,728.7,728.6v93.5c0,35.5,20.1,68.1,52,83.9c31.7,15.8,69.9,12.3,98.3-9l755.8-569.4
	c40.2-30.4,64.3-32.7,70.7-32.7c17.6,0,27.1,42,27.1,81.5L5481.7,5322L5481.7,5322z M3022.8,4054l-854.9-644.1
	c-45.6-34.3-91.8-51.8-137.5-51.8c-85.1,0-170.8,63.6-170.8,205.5v1368.6c0,141.9,85.8,205.5,170.8,205.5
	c45.6,0,91.8-17.4,137.5-51.8l855-644.1c65.2-49.1,102.5-119.8,102.5-194C3125.4,4173.7,3088,4103,3022.8,4054z M2910,4292.1
	l-854.9,644.1c-2.7,2.1-5.3,3.8-7.6,5.3c-0.2-2.7-0.3-5.8-0.3-9.3V3563.6c0-3.5,0.1-6.5,0.3-9.3c2.3,1.5,4.9,3.3,7.6,5.3
	l854.9,644.1c17.9,13.5,27.8,29.2,27.9,44.2C2937.8,4262.9,2927.9,4278.6,2910,4292.1z"/>
</svg>
