<svg version="1.1" xmlns="http://www.w3.org/2000/svg" xmlns:xlink="http://www.w3.org/1999/xlink" x="0px" y="0px"
	 viewBox="0 0 25 25" style="enable-background:new 0 0 25 25;" xml:space="preserve" width="25" height="25">
<style type="text/css">
	.st0{opacity:0;}
	.st1{fill:#ED2224;}
	.st2{fill:none;}
	.st3{fill:#ffffff;}
</style>
<g class="st0">
	<path class="st1" d="M12.5,3.9c-4.7,0-8.6,3.8-8.6,8.6s3.8,8.6,8.6,8.6s8.6-3.8,8.6-8.6S17.2,3.9,12.5,3.9 M12.5,7.8
		c2.6,0,4.7,2.1,4.7,4.7s-2.1,4.7-4.7,4.7s-4.7-2.1-4.7-4.7S9.9,7.8,12.5,7.8"/>
	<path class="st1" d="M10.9,0h3.1l1.6,6.3H9.4L10.9,0z M10.9,25h3.1l1.6-6.3H9.4L10.9,25z"/>
	<path class="st1" d="M20.2,2.6l2.2,2.2l-3.3,5.5l-4.4-4.4L20.2,2.6z M2.6,20.2l2.2,2.2l5.5-3.3l-4.4-4.4L2.6,20.2z"/>
	<path class="st1" d="M25,10.9v3.1l-6.3,1.6V9.4L25,10.9z M0,10.9v3.1l6.3,1.6V9.4L0,10.9z"/>
	<path class="st1" d="M22.4,20.2l-2.2,2.2l-5.5-3.3l4.4-4.4L22.4,20.2z M4.8,2.6L2.6,4.8l3.3,5.5l4.4-4.4L4.8,2.6z"/>
</g>
<g id="octogon-guide">
	<rect x="4.7" y="4.7" class="st2" width="15.6" height="15.6"/>
	<rect x="4.7" y="4.7" transform="matrix(0.7071 -0.7071 0.7071 0.7071 -5.1777 12.5)" class="st2" width="15.6" height="15.6"/>
</g>
<g>
	<path class="st3" d="M10.9,0h3.1l0.8,4.7l1.3,0.6l4.1-2.7l2.1,2.1l-2.7,4.1l0.6,1.3l4.7,0.8v3.1l-4.7,0.8l-0.6,1.3l2.7,4.1
		l-2.1,2.1l-4.1-2.7l-1.3,0.6L14.1,25h-3.1l-0.8-4.7l-1.3-0.6l-4.1,2.7l-2.1-2.1l2.7-4.1l-0.6-1.3L0,14.1v-3.1l4.7-0.8l0.6-1.3
		L2.6,4.7l2.1-2.1l4.1,2.7l1.3-0.6L10.9,0z M12.5,7.8c-2.6,0-4.7,2.1-4.7,4.7s2.1,4.7,4.7,4.7s4.7-2.1,4.7-4.7S15.1,7.8,12.5,7.8"/>
</g>
</svg>
