<?xml version="1.0" encoding="utf-8"?>
<!-- Generator: Adobe Illustrator 24.1.3, SVG Export Plug-In . SVG Version: 6.00 Build 0)  -->
<svg version="1.1" id="Livello_1" xmlns="http://www.w3.org/2000/svg" xmlns:xlink="http://www.w3.org/1999/xlink" x="0px" y="0px"
	 viewBox="0 0 24 24" style="enable-background:new 0 0 24 24;" xml:space="preserve">
<g>
	<path d="M10.6,16c-0.2,0-0.5-0.2-0.6-0.4l-0.7-1.8c-0.4-1-0.6-2-0.6-3V9.2c0-0.3,0.3-0.6,0.6-0.6c0.3,0,0.6,0.3,0.6,0.6v1.7
		c0,0.9,0.2,1.7,0.5,2.5l0,0.1l0.7-2.6c0.1-0.3,0.3-0.4,0.6-0.4c0.3,0,0.5,0.2,0.6,0.4l0.7,2.6l0-0.1c0.3-0.8,0.5-1.7,0.5-2.5V9.2
		c0-0.3,0.3-0.6,0.6-0.6c0.3,0,0.6,0.3,0.6,0.6v1.7c0,1-0.2,2-0.6,3l-0.7,1.8c-0.1,0.2-0.3,0.4-0.6,0.4c0,0,0,0,0,0
		c-0.3,0-0.5-0.2-0.6-0.4l-0.6-2.2l-0.6,2.2C11.1,15.8,10.9,16,10.6,16C10.7,16,10.6,16,10.6,16z"/>
	<path d="M18,16c-0.2,0-0.5-0.2-0.6-0.4l-0.7-1.8c-0.4-1-0.6-2-0.6-3V9.2c0-0.3,0.3-0.6,0.6-0.6c0.3,0,0.6,0.3,0.6,0.6v1.7
		c0,0.9,0.2,1.7,0.5,2.5l0,0.1l0.7-2.6c0.1-0.3,0.3-0.4,0.6-0.4s0.5,0.2,0.6,0.4l0.7,2.6l0-0.1c0.3-0.8,0.5-1.7,0.5-2.5V9.2
		c0-0.3,0.3-0.6,0.6-0.6s0.6,0.3,0.6,0.6v1.7c0,1-0.2,2-0.6,3l-0.7,1.8C21,15.9,20.7,16,20.5,16c0,0,0,0,0,0c-0.3,0-0.5-0.2-0.6-0.4
		l-0.6-2.2l-0.6,2.2C18.5,15.8,18.3,16,18,16C18.1,16,18,16,18,16z"/>
	<path d="M3.2,16c-0.2,0-0.5-0.2-0.6-0.4l-0.7-1.8c-0.4-1-0.6-2-0.6-3V9.2c0-0.3,0.3-0.6,0.6-0.6s0.6,0.3,0.6,0.6v1.7
		c0,0.9,0.2,1.7,0.5,2.5l0,0.1l0.7-2.6c0.1-0.3,0.3-0.4,0.6-0.4s0.5,0.2,0.6,0.4l0.7,2.6l0-0.1c0.3-0.8,0.5-1.7,0.5-2.5V9.2
		c0-0.3,0.3-0.6,0.6-0.6s0.6,0.3,0.6,0.6v1.7c0,1-0.2,2-0.6,3l-0.7,1.8C6.2,15.9,5.9,16,5.7,16c0,0,0,0,0,0c-0.3,0-0.5-0.2-0.6-0.4
		l-0.6-2.2l-0.6,2.2C3.7,15.8,3.5,16,3.2,16C3.3,16,3.2,16,3.2,16z"/>
</g>
</svg>
